# Blender 4.3.0
# www.blender.org
mtllib bridge.mtl
o Cube
v -1.000000 -1.000000 1.000000
v -1.000000 1.000000 1.000000
v -1.000000 -1.000000 -1.000000
v -1.000000 1.000000 -1.000000
v 1.000000 -1.000000 1.000000
v 1.000000 1.000000 1.000000
v 1.000000 -1.000000 -1.000000
v 1.000000 1.000000 -1.000000
v -1.000000 -1.000000 1.000000
v -1.000000 1.000000 1.000000
v -1.000000 -1.000000 -1.000000
v -1.000000 1.000000 -1.000000
v 1.000000 -1.000000 1.000000
v 1.000000 1.000000 1.000000
v 1.000000 -1.000000 -1.000000
v 1.000000 1.000000 -1.000000
v -1.000000 -1.000000 1.000000
v -1.000000 1.000000 1.000000
v -1.000000 -1.000000 -1.000000
v -1.000000 1.000000 -1.000000
v 1.000000 -1.000000 1.000000
v 1.000000 1.000000 1.000000
v 1.000000 -1.000000 -1.000000
v 1.000000 1.000000 -1.000000
v -1.000000 -1.000000 -6.597174
v -1.000000 1.000000 -6.597174
v 1.000000 -1.000000 -6.597174
v 1.000000 1.000000 -6.597174
v -1.000000 -1.000000 5.713730
v -1.000000 1.000000 5.713730
v 1.000000 -1.000000 5.713730
v 1.000000 1.000000 5.713730
v -1.000000 -1.000000 2.571244
v -1.000000 -1.000000 4.142487
v -1.000000 1.000000 4.142487
v -1.000000 1.000000 2.571243
v 1.000000 -1.000000 2.571244
v 1.000000 -1.000000 4.142487
v 1.000000 1.000000 4.142487
v 1.000000 1.000000 2.571243
v -1.000000 1.000000 -2.880885
v -1.000000 1.000000 -4.746609
v -1.000000 -1.000000 -4.746609
v -1.000000 -1.000000 -2.880885
v 1.000000 -1.000000 -2.880885
v 1.000000 -1.000000 -4.746609
v 1.000000 1.000000 -4.746609
v 1.000000 1.000000 -2.880885
v -1.000000 4.993072 5.713730
v 1.000000 4.993072 5.713730
v -1.000000 4.993072 4.142487
v 1.000000 4.993072 4.142487
v -1.000000 4.893669 -6.597174
v 1.000000 4.893669 -6.597174
v -1.000000 4.893669 -4.746609
v 1.000000 4.893669 -4.746609
v -8.464072 1.000000 -2.880885
v -8.464072 1.000000 -4.746609
v -8.464072 -1.000000 -4.746609
v -8.464072 -1.000000 -2.880885
v -6.464072 -1.000000 -4.746609
v -8.453611 -1.000000 2.571244
v -8.453611 -1.000000 4.142487
v -8.453611 1.000000 4.142487
v -8.453611 1.000000 2.571243
v -3.969364 1.000000 4.142487
v -6.453901 1.000000 4.142487
v -6.453901 -1.000000 4.142487
v -3.969364 -1.000000 4.142487
v -3.969364 1.000000 2.571243
v -6.453901 1.000000 2.571243
v -3.969364 -1.000000 2.571244
v -6.453901 -1.000000 2.571244
v -4.087995 -1.000000 -2.880885
v -6.576019 -1.000000 -2.880885
v -4.087995 1.000000 -2.880885
v -6.576019 1.000000 -2.880885
v -4.087995 1.000000 -4.746609
v -6.576019 1.000000 -4.746609
v -8.453611 -1.000001 -2.899186
v -8.453611 0.999999 -2.899187
v -6.453901 0.999999 -2.899187
v -6.453901 -1.000001 -2.899186
v -8.453611 -1.000000 5.972984
v -8.453611 1.000000 5.972984
v -6.453901 1.000000 5.972984
v -6.453901 -1.000000 5.972984
vn 1.0000 -0.0000 -0.0000
vn -0.0000 -0.0000 1.0000
vn -1.0000 -0.0000 -0.0000
vn -0.0000 -0.0000 -1.0000
vn -0.0000 1.0000 -0.0000
vn -0.0000 -1.0000 -0.0000
vt 0.804739 0.751899
vt 0.804739 0.834599
vt 0.722038 0.834599
vt 0.722038 0.751899
vt 0.165401 0.767327
vt 0.165401 0.850027
vt 0.082700 0.850027
vt 0.082700 0.767327
vt 0.722038 0.810124
vt 0.722038 0.892824
vt 0.639338 0.892824
vt 0.639338 0.810124
vt 0.722038 0.975525
vt 0.639338 0.975525
vt 0.082700 0.910854
vt 0.000000 0.910854
vt 0.000000 0.828153
vt 0.082700 0.828153
vt 0.804739 0.917300
vt 0.722038 0.917300
vt 0.165401 0.850027
vt 0.165401 0.932728
vt 0.082700 0.932728
vt 0.082700 0.850027
vt 0.948265 0.225520
vt 0.948265 0.308220
vt 0.865565 0.308220
vt 0.865565 0.225520
vt 0.948265 0.390921
vt 0.865565 0.390921
vt 0.330802 0.906720
vt 0.330802 0.989420
vt 0.248101 0.989420
vt 0.248101 0.906720
vt 0.970139 0.525958
vt 0.887439 0.525958
vt 0.887439 0.443258
vt 0.970139 0.443258
vt 0.970140 0.608658
vt 0.887439 0.608658
vt 0.887439 0.525958
vt 0.970140 0.525958
vt 0.948265 0.160475
vt 0.865565 0.160475
vt 0.865565 0.077775
vt 0.948265 0.077775
vt 0.804739 0.912482
vt 0.804739 0.829782
vt 0.881260 0.829782
vt 0.881260 0.912482
vt 0.639338 0.720872
vt 0.556637 0.720872
vt 0.556637 0.638171
vt 0.639338 0.638171
vt 0.946231 0.833892
vt 0.946231 0.916592
vt 0.881260 0.916592
vt 0.881260 0.833892
vt 0.082974 0.288068
vt 0.000273 0.287970
vt 0.000371 0.205270
vt 0.083072 0.205367
vt 0.782864 0.288334
vt 0.700164 0.288334
vt 0.700164 0.205634
vt 0.782864 0.205634
vt 0.165401 0.763217
vt 0.165401 0.680516
vt 0.248101 0.680516
vt 0.248101 0.763217
vt 0.556637 0.875795
vt 0.639338 0.875795
vt 0.639338 0.952316
vt 0.556637 0.952316
vt 0.000090 0.442893
vt 0.082791 0.442991
vt 0.082700 0.519512
vt -0.000000 0.519414
vt 0.165401 0.519512
vt 0.248101 0.519512
vt 0.082700 0.767327
vt 0.082700 0.684626
vt 0.165401 0.684626
vt 0.083225 0.075425
vt 0.000525 0.075327
vt 0.000601 0.010356
vt 0.083302 0.010454
vt 0.082700 0.519512
vt 0.639338 0.508229
vt 0.556637 0.508229
vt 0.556637 0.443258
vt 0.639338 0.443258
vt 0.556637 0.573200
vt 0.639338 0.573200
vt 0.700164 0.140663
vt 0.782864 0.140663
vt 0.700164 0.075691
vt 0.782864 0.075691
vt 0.000448 0.140298
vt 0.083148 0.140396
vt 0.948265 0.225447
vt 0.865565 0.225447
vt 0.722038 0.518949
vt 0.639338 0.518949
vt 0.722038 0.443258
vt 0.782864 0.366109
vt 0.700164 0.366109
vt 0.782864 0.443258
vt 0.700164 0.443258
vt 0.082882 0.365843
vt 0.000182 0.365745
vt 0.639338 0.798647
vt 0.556637 0.798647
vt 0.865565 -0.000000
vt 0.948265 0.000000
vt 0.210571 0.365994
vt 0.313451 0.366115
vt 0.391523 0.366207
vt 0.391432 0.443355
vt 0.787009 0.917300
vt 0.787009 1.000000
vt 0.722038 1.000000
vt 0.722038 0.917300
vt 0.391523 0.508229
vt 0.391523 0.443258
vt 0.881260 0.668778
vt 0.946231 0.668778
vt 0.865565 0.390634
vt 0.782864 0.390634
vt 0.782864 0.225520
vt 0.865565 0.225520
vt 0.804739 0.995183
vt 0.881260 0.995183
vt 0.395633 0.952316
vt 0.395633 0.875795
vt 0.248101 0.906720
vt 0.248101 0.745716
vt 0.330802 0.745716
vt 0.804739 0.668778
vt 0.000000 0.993554
vt 0.000000 0.910854
vt 0.077148 0.910854
vt 0.077148 0.993554
vt 0.804739 0.521329
vt 0.722038 0.521329
vt 0.722038 0.443258
vt 0.804739 0.443258
vt 0.469594 0.366109
vt 0.469594 0.443258
vt 0.391523 0.443258
vt 0.391523 0.366109
vt 0.000000 0.519512
vt 0.082700 0.519512
vt 0.082700 0.828153
vt -0.000000 0.828153
vt 0.000000 0.750082
vt 0.000000 0.647201
vt 0.165401 0.519512
vt 0.722038 0.583920
vt 0.639338 0.583920
vt 0.474644 0.075691
vt 0.474644 0.140663
vt 0.391955 0.140663
vt 0.391955 0.075691
vt 0.474644 0.366866
vt 0.391955 0.366866
vt 0.308668 0.140663
vt 0.308745 0.075691
vt 0.391433 0.075789
vt 0.391357 0.140760
vt 0.206009 0.075570
vt 0.205932 0.140541
vt 0.782864 -0.000000
vt 0.865565 0.000000
vt 0.865565 0.122784
vt 0.782864 0.122784
vt 0.782864 0.225520
vt 0.577380 0.140663
vt 0.577380 0.075691
vt 0.887439 0.668778
vt 0.804739 0.668778
vt 0.804739 0.545994
vt 0.887439 0.545994
vt 0.804739 0.443258
vt 0.887439 0.443258
vt 0.572475 0.443258
vt 0.572475 0.366109
vt 0.722038 0.624209
vt 0.804739 0.624209
vt 0.248101 0.845917
vt 0.165413 0.845917
vt 0.165413 0.763217
vt 0.722038 0.810124
vt 0.639338 0.810124
vt 0.330802 0.745716
vt 0.248101 0.745716
vt 0.248101 0.519512
vt 0.330802 0.519512
vt 0.391089 0.366964
vt 0.308401 0.366866
vt 0.165413 0.928617
vt 0.165413 0.845917
vt 0.248101 0.845917
vt 0.248101 0.928617
vt 0.391955 0.000000
vt 0.474644 0.000000
vt 0.881260 0.999293
vt 0.881260 0.916592
vt 0.956951 0.916592
vt 0.956951 0.999293
vt 0.308834 -0.000000
vt 0.391523 0.000098
s 0
usemtl Material.002
f 1/1/1 3/2/1 4/3/1 2/4/1
f 3/5/2 7/6/2 8/7/2 4/8/2
f 7/9/3 5/10/3 6/11/3 8/12/3
f 5/10/4 1/13/4 2/14/4 6/11/4
f 3/15/5 1/16/5 5/17/5 7/18/5
f 8/19/6 6/20/6 2/3/6 4/2/6
f 9/21/1 11/22/1 12/23/1 10/24/1
f 11/25/2 15/26/2 16/27/2 12/28/2
f 15/26/3 13/29/3 14/30/3 16/27/3
f 13/31/4 9/32/4 10/33/4 14/34/4
f 11/35/5 9/36/5 13/37/5 15/38/5
f 16/39/6 14/40/6 10/41/6 12/42/6
f 17/43/3 18/44/3 20/45/3 19/46/3
f 43/47/3 42/48/3 26/49/3 25/50/3
f 23/51/1 24/52/1 22/53/1 21/54/1
f 35/55/3 34/56/3 29/57/3 30/58/3
f 19/59/6 23/60/6 21/61/6 17/62/6
f 24/63/5 20/64/5 18/65/5 22/66/5
f 25/67/4 26/68/4 28/69/4 27/70/4
f 47/71/1 46/72/1 27/73/1 28/74/1
f 46/75/6 43/76/6 25/77/6 27/78/6
f 28/69/4 26/68/4 53/79/4 54/80/4
f 31/81/2 32/82/2 30/83/2 29/5/2
f 34/84/6 38/85/6 31/86/6 29/87/6
f 30/83/2 32/82/2 50/88/2 49/79/2
f 38/89/1 39/90/1 32/91/1 31/92/1
f 21/54/1 22/53/1 40/93/1 37/94/1
f 37/94/1 40/93/1 39/90/1 38/89/1
f 22/66/5 18/65/5 36/95/5 40/96/5
f 40/96/5 36/95/5 35/97/5 39/98/5
f 17/62/6 21/61/6 37/99/6 33/100/6
f 33/100/6 37/99/6 38/85/6 34/84/6
f 18/44/3 17/43/3 33/101/3 36/102/3
f 64/103/3 63/104/3 84/92/3 85/105/3
f 20/64/5 24/63/5 48/106/5 41/107/5
f 41/107/5 48/106/5 47/108/5 42/109/5
f 23/60/6 19/59/6 44/110/6 45/111/6
f 45/111/6 44/110/6 43/76/6 46/75/6
f 24/52/1 23/51/1 45/112/1 48/113/1
f 48/113/1 45/112/1 46/72/1 47/71/1
f 19/46/3 20/45/3 41/114/3 44/115/3
f 43/76/6 44/110/6 74/116/6 75/117/6 60/118/6 59/119/6
f 52/120/5 51/121/5 49/122/5 50/123/5
f 32/91/1 39/90/1 52/124/1 50/125/1
f 35/55/3 30/58/3 49/126/3 51/127/3
f 39/128/4 35/129/4 51/130/4 52/131/4
f 55/132/5 56/47/5 54/50/5 53/133/5
f 47/71/1 28/74/1 54/134/1 56/135/1
f 42/31/2 47/136/2 56/137/2 55/138/2
f 26/49/3 42/48/3 55/139/3 53/126/3
f 60/140/3 57/141/3 58/142/3 59/143/3
f 75/144/2 77/145/2 57/146/2 60/147/2
f 77/148/5 79/149/5 58/150/5 57/151/5
f 42/152/4 43/153/4 59/154/4 58/155/4 79/156/4 78/157/4
f 46/158/6 43/158/6 59/158/6 61/158/6
f 65/159/3 62/160/3 63/104/3 64/103/3
f 67/161/5 71/162/5 65/163/5 64/164/5
f 65/163/5 71/162/5 82/165/5 81/166/5
f 73/167/6 68/168/6 63/169/6 62/170/6
f 33/100/6 34/84/6 69/171/6 72/172/6
f 72/172/6 69/171/6 68/168/6 73/167/6
f 36/173/4 33/174/4 72/175/4 70/176/4
f 70/176/4 72/175/4 73/28/4 71/177/4
f 35/97/5 36/95/5 70/178/5 66/179/5
f 66/179/5 70/178/5 71/162/5 67/161/5
f 34/180/2 35/181/2 66/182/2 69/183/2
f 69/183/2 66/182/2 67/184/2 68/185/2
f 41/107/5 42/109/5 78/186/5 76/187/5
f 76/187/5 78/186/5 79/149/5 77/148/5
f 44/1/2 41/4/2 76/188/2 74/189/2
f 74/189/2 76/188/2 77/145/2 75/144/2
f 82/70/4 83/190/4 80/191/4 81/192/4
f 62/160/3 65/159/3 81/193/3 80/194/3
f 71/195/1 73/196/1 83/197/1 82/198/1
f 73/167/6 62/170/6 80/199/6 83/200/6
f 87/201/2 86/202/2 85/203/2 84/204/2
f 67/161/5 64/164/5 85/205/5 86/206/5
f 68/207/1 67/208/1 86/209/1 87/210/1
f 63/169/6 68/168/6 87/211/6 84/212/6
